<?xml version="1.0" encoding="UTF-8"?>
<!DOCTYPE svg PUBLIC "-//W3C//DTD SVG 1.1//EN" "http://www.w3.org/Graphics/SVG/1.1/DTD/svg11.dtd">
<svg xmlns="http://www.w3.org/2000/svg" version="1.1" width="500px" height="500px" style="shape-rendering:geometricPrecision; text-rendering:geometricPrecision; image-rendering:optimizeQuality; fill-rule:evenodd; clip-rule:evenodd" xmlns:xlink="http://www.w3.org/1999/xlink">
<g><path style="opacity:1" fill="#fcfcfc" d="M -0.5,-0.5 C 166.167,-0.5 332.833,-0.5 499.5,-0.5C 499.5,166.167 499.5,332.833 499.5,499.5C 332.833,499.5 166.167,499.5 -0.5,499.5C -0.5,332.833 -0.5,166.167 -0.5,-0.5 Z"/></g>
<g><path style="opacity:1" fill="#7b1515" d="M 358.5,114.5 C 358.334,119.511 358.501,124.511 359,129.5C 359.513,128.473 360.013,127.473 360.5,126.5C 362.219,122.61 364.552,119.11 367.5,116C 377.012,116.53 383.512,121.363 387,130.5C 387.667,132.5 387.667,134.5 387,136.5C 381.374,141.733 374.874,145.566 367.5,148C 334.827,176.665 308.994,210.499 290,249.5C 279.855,271.727 275.021,295.06 275.5,319.5C 305.065,317.901 322.898,331.568 329,360.5C 335.965,406.409 318.799,439.575 277.5,460C 248.168,472.133 220.168,469.8 193.5,453C 165.356,433.307 152.523,406.14 155,371.5C 159.272,338.105 176.439,313.938 206.5,299C 228.188,290.881 246.688,295.381 262,312.5C 263.5,282.664 271.5,254.664 286,228.5C 301.985,200.39 321.485,174.89 344.5,152C 333.295,153.061 322.295,155.394 311.5,159C 258.475,175.838 210.475,201.505 167.5,236C 180.238,241.433 190.738,249.6 199,260.5C 200.333,263.833 201.667,267.167 203,270.5C 203.5,277.826 203.666,285.159 203.5,292.5C 189.33,297.502 177.496,305.835 168,317.5C 157.696,330.783 151.196,345.783 148.5,362.5C 119.889,371.499 92.556,368.665 66.5,354C 24.5299,319.293 16.6966,278.126 43,230.5C 64.5287,201.155 93.362,188.989 129.5,194C 144.51,199.179 155.177,209.012 161.5,223.5C 216.376,179.902 278.376,151.069 347.5,137C 328.755,129.922 315.588,117.089 308,98.5C 302.71,86.3142 299.71,73.6475 299,60.5C 315.049,65.6053 329.549,73.4387 342.5,84C 350.878,92.591 356.212,102.758 358.5,114.5 Z"/></g>
<g><path style="opacity:1" fill="#af6f6f" d="M 358.5,114.5 C 359.167,118.5 359.833,122.5 360.5,126.5C 360.013,127.473 359.513,128.473 359,129.5C 358.501,124.511 358.334,119.511 358.5,114.5 Z"/></g>
<g><path style="opacity:1" fill="#faf7f7" d="M 107.5,201.5 C 116.745,199.775 122.745,203.275 125.5,212C 122.624,221.956 115.958,227.456 105.5,228.5C 94.032,226.906 90.532,220.906 95,210.5C 98.2991,206.118 102.466,203.118 107.5,201.5 Z"/></g>
<g><path style="opacity:1" fill="#fbf9f9" d="M 208.5,308.5 C 220.043,307.208 224.876,312.208 223,323.5C 219.295,334.188 211.795,338.688 200.5,337C 194.758,332.762 193.258,327.262 196,320.5C 198.744,314.921 202.911,310.921 208.5,308.5 Z"/></g>
</svg>
